Coordinates
version=1
nRows=6
nColumns=36
inDegrees=yes

Units are S.I. units (second, meters, Newtons, ...)
If the header above contains a line with 'inDegrees', this indicates whether rotational values are in degrees (yes) or radians (no).

endheader
time	pelvis_tilt	pelvis_list	pelvis_rotation	pelvis_tx	pelvis_ty	pelvis_tz	hip_flexion_r	hip_adduction_r	hip_rotation_r	knee_angle_r	knee_angle_r_beta	ankle_angle_r	subtalar_angle_r	mtp_angle_r	hip_flexion_l	hip_adduction_l	hip_rotation_l	knee_angle_l	knee_angle_l_beta	ankle_angle_l	subtalar_angle_l	mtp_angle_l	lumbar_extension	lumbar_bending	lumbar_rotation	arm_flex_r	arm_add_r	arm_rot_r	elbow_flex_r	pro_sup_r	arm_flex_l	arm_add_l	arm_rot_l	elbow_flex_l	pro_sup_l
     14.88333330	     -5.41955867	     -1.52901451	     -2.73614350	      0.77754936	      0.79349716	      0.72879439	     -4.51532286	      4.60140321	      0.03853310	      7.70779694	      0.13452643	     18.11289327	      2.65224722	     -7.49999987	     33.55676395	     -1.95908527	     -3.53895353	     11.24487449	      0.19626008	      9.04166201	      0.90087420	     -7.49999987	     -0.03203259	      3.83634389	      7.92580201	     18.05121606	    -21.69823323	      8.41324392	     31.60247752	     85.61169349	      3.65521770	     -7.56091346	      6.25787145	     10.18958891	     88.91994511
     14.90000000	     -5.56710746	     -1.53953986	     -2.62977347	      0.77950565	      0.79109782	      0.72907228	     -5.84656532	      4.51283694	      0.16269093	      7.29568882	      0.12733379	     19.36414351	      3.83217936	     -7.49999987	     33.69194875	     -1.94224026	     -2.55195036	      6.95358463	      0.12136295	      9.61073221	      2.69023180	     -7.49999987	      0.09843975	      3.93535526	      7.71344694	     19.05075975	    -21.71356401	      8.35287549	     32.12103396	     84.80831061	      3.46665373	     -7.14214340	      4.80505845	      9.33590133	     88.58347876
     14.91666670	     -5.49833803	     -1.35831782	     -2.59139803	      0.77905300	      0.79024901	      0.72780764	     -7.33494573	      4.20173842	      0.59019605	      6.90063102	      0.12043873	     20.55747421	      4.57921461	     -7.49999987	     33.74114664	     -1.77253691	     -1.73521185	      4.36762212	      0.07622939	      9.92814199	      3.68949496	     -7.49999987	     -0.00264755	      3.72905280	      7.65367497	     19.79966750	    -21.67760592	      8.25210116	     32.62357867	     85.10302156	      3.46416831	     -6.96537911	      4.15854009	      8.92648385	     89.01922767
     14.93333330	     -5.45219220	     -1.05761078	     -2.56244102	      0.77690568	      0.79038054	      0.72612504	     -8.69573571	      3.73350331	      0.87788214	      6.73524996	      0.11755229	     21.64643389	      5.24053277	     -7.49999987	     33.95176372	     -1.42645865	     -1.23217827	      3.38191365	      0.05902553	      9.98296454	      4.09599125	     -7.49999987	      0.00058910	      3.40353666	      7.41371308	     20.70137461	    -21.28815755	      7.93477050	     32.52472550	     88.15017187	      3.59616202	     -6.55781967	     -2.17410393	      8.37896812	     93.87128813
     14.95000000	     -5.53961147	     -0.57203379	     -2.56068423	      0.77627765	      0.79095240	      0.72490289	     -9.80082230	      3.03504027	      1.17623371	      6.93164791	      0.12098008	     22.34398665	      5.37075509	     -7.49999987	     34.25333561	     -0.85359169	     -1.27903073	      3.60177411	      0.06286282	      9.65265521	      4.01791351	     -7.49999987	      0.22757715	      2.81712963	      7.51001735	     21.07743228	    -20.97747763	      7.93898352	     32.62006160	     88.13372644	      3.70697232	     -6.62071045	     -2.13125892	      8.13493674	     93.92988478
     14.96666670	     -5.34686312	     -0.00689573	     -2.54943322	      0.77805692	      0.79186726	      0.72410198	    -11.00254698	      2.17439538	      1.09148645	      7.61198028	      0.13285412	     22.70739826	      5.51806207	     -7.49999987	     34.09836452	     -0.13821776	     -1.57287670	      4.74725577	      0.08285524	      8.84188882	      3.38349776	     -7.49999987	      0.16407293	      2.08516639	      7.63244702	     21.49358863	    -20.55862560	      7.89508560	     32.12321829	     88.16914898	      4.12976825	     -6.72413120	     -2.18043486	      7.16967444	     94.10869486
